<?xml version="1.0" encoding="utf-8"?>
<!-- Generator: Adobe Illustrator 17.0.0, SVG Export Plug-In . SVG Version: 6.00 Build 0)  -->
<!DOCTYPE svg PUBLIC "-//W3C//DTD SVG 1.1//EN" "http://www.w3.org/Graphics/SVG/1.1/DTD/svg11.dtd">
<svg version="1.1" id="图形" xmlns="http://www.w3.org/2000/svg" xmlns:xlink="http://www.w3.org/1999/xlink" x="0px" y="0px"
	 width="1024px" height="1024px" viewBox="0 0 1024 1024" enable-background="new 0 0 1024 1024" xml:space="preserve">
<path fill="#161616" d="M864,480H704c-17.6,0-32,14.4-32,32c0,17.6,14.4,32,32,32h160c17.6,0,32-14.4,32-32S881.6,480,864,480z"/>
<path fill="#9E9E9E" d="M352,512c0-17.6-14.4-32-32-32H160c-17.6,0-32,14.4-32,32c0,17.6,14.4,32,32,32h160
	C337.6,544,352,529.6,352,512z"/>
<path fill="#585858" d="M512,672c-17.6,0-32,14.4-32,32v160c0,17.6,14.4,32,32,32c17.6,0,32-14.4,32-32V704
	C544,686.4,529.6,672,512,672z"/>
<path fill="#E8E8E8" d="M512,128c-17.6,0-32,14.4-32,32v160c0,17.6,14.4,32,32,32c17.6,0,32-14.4,32-32V160
	C544,142.4,529.6,128,512,128z"/>
<path d="M650.6,432c8.8,15.4,28.4,20.6,43.8,11.8l138.6-80c15.4-8.8,20.6-28.4,11.8-43.8s-28.4-20.6-43.8-11.8l-138.6,80
	C647,397.2,641.8,416.6,650.6,432z"/>
<path fill="#878787" d="M373.4,592c-8.8-15.4-28.4-20.6-43.8-11.8l-138.6,80c-15.4,8.8-20.6,28.4-11.8,43.8
	c8.8,15.4,28.4,20.6,43.8,11.8l138.6-80C377,626.8,382.2,607.4,373.4,592z"/>
<path fill="#444444" d="M635.8,662.2c-8.8-15.4-28.4-20.6-43.8-11.8s-20.6,28.4-11.8,43.8l80,138.6c8.8,15.4,28.4,20.6,43.8,11.8
	c15.4-8.8,20.6-28.4,11.8-43.8L635.8,662.2z"/>
<path fill="#D4D4D4" d="M363.8,191.2c-8.8-15.4-28.4-20.6-43.8-11.8s-20.6,28.4-11.8,43.8l80,138.6c8.8,15.4,28.4,20.6,43.8,11.8
	s20.6-28.4,11.8-43.8L363.8,191.2z"/>
<path fill="#FCFCFC" d="M592,373.4c15.4,8.8,34.8,3.6,43.8-11.8l80-138.6c8.8-15.4,3.6-34.8-11.8-43.8c-15.4-8.8-34.8-3.6-43.8,11.8
	l-80,138.6C571.4,345,576.6,364.6,592,373.4z"/>
<path fill="#767676" d="M432,650.6c-15.4-8.8-34.8-3.6-43.8,11.8l-80,138.6c-8.8,15.4-3.6,34.8,11.8,43.8
	c15.4,8.8,34.8,3.6,43.8-11.8l80-138.6C452.6,679,447.4,659.4,432,650.6z"/>
<path fill="#2A2A2A" d="M832.8,660.2l-138.6-80c-15.4-8.8-34.8-3.6-43.8,11.8c-8.8,15.4-3.6,34.8,11.8,43.8l138.6,80
	c15.4,8.8,34.8,3.6,43.8-11.8C853.4,688.6,848.2,669.2,832.8,660.2z"/>
<path fill="#B1B1B1" d="M191.2,363.8l138.6,80c15.4,8.8,34.8,3.6,43.8-11.8s3.6-34.8-11.8-43.8l-138.6-80
	c-15.4-8.8-34.8-3.6-43.8,11.8C170.6,335.4,175.8,354.8,191.2,363.8z"/>
</svg>
